<svg width="194" height="194" viewBox="0 0 194 194" fill="none" xmlns="http://www.w3.org/2000/svg">
<circle opacity="0.6" cx="96.7797" cy="96.7789" r="44.7516" fill="white"/>
<path d="M43.477 140.256C52.4316 151.234 64.5576 159.18 78.198 163.007C91.8384 166.834 106.328 166.356 119.686 161.638C133.045 156.92 144.62 148.192 152.832 136.647C161.043 125.102 165.489 111.304 165.563 97.1369C165.637 82.9699 161.334 69.1258 153.243 57.4963C145.153 45.8668 133.668 37.0191 120.36 32.1624C107.051 27.3057 92.5674 26.6768 78.8879 30.3617C65.2085 34.0466 53.0004 41.8655 43.9321 52.7499" stroke="white" stroke-width="2"/>
<path d="M85.1775 82.6165C85.1775 80.8264 86.4933 79.3755 88.1169 79.3755C88.6212 79.3755 88.9408 79.5207 89.503 79.7673L110.123 92.9939C111.081 93.6204 111.526 94.6272 111.697 95.7877V96.1133C111.526 97.2732 111.081 98.2802 110.123 98.9071L89.5033 112.133C88.9408 112.38 88.6212 112.525 88.1172 112.525C86.4936 112.525 85.1778 111.074 85.1778 109.284V82.6165H85.1775Z" fill="#DBBF8D"/>
</svg>
