<svg xmlns="http://www.w3.org/2000/svg" width="916" height="3307" fill="none"><path stroke="#fff" stroke-width="2" d="M363.026 3306c25.117-287.81-106.092-481.01-217.511-570.39m0 0c-81.684-65.53-152.732-75.25-143.745-25.55 12.327 68.19 67.431 138.14 143.745 25.55Zm0 0c55.197-81.44 121.49-258.37 190.718-600.55 66.654-329.44 182.568-481.81 293.159-535.96M651.163 1c102.041 114.781 53.885 332.672-9.072 458.893m0 0c-41.984 84.172-90.55 127.578-105.544 72.451-17.381-63.901 40.169-90.817 105.544-72.451Zm0 0c75.595 21.237 161.654 103.02 154.424 258.178-13.482 289.339-131.013 398.309-211.716 623.569-28.887 80.63-3.113 175.78 44.593 257.46m0 0c85.573 146.51 241.713 249.71 279.507 148.11 35.076-94.29-116.43-227.97-279.507-148.11Z" opacity=".4"/></svg>