<svg width="131" height="117" viewBox="0 0 131 117" fill="none" xmlns="http://www.w3.org/2000/svg">
<g clip-path="url(#clip0_14_65)">
<path d="M1.52326 3.05217C2.36453 3.05217 3.04651 2.36892 3.04651 1.52609C3.04651 0.683252 2.36453 0 1.52326 0C0.681985 0 0 0.683252 0 1.52609C0 2.36892 0.681985 3.05217 1.52326 3.05217Z" fill="url(#paint0_linear_14_65)"/>
<path d="M44.1744 3.05217C45.0157 3.05217 45.6976 2.36892 45.6976 1.52609C45.6976 0.683252 45.0157 0 44.1744 0C43.3331 0 42.6511 0.683252 42.6511 1.52609C42.6511 2.36892 43.3331 3.05217 44.1744 3.05217Z" fill="url(#paint1_linear_14_65)"/>
<path d="M86.8256 3.05217C87.6669 3.05217 88.3489 2.36892 88.3489 1.52609C88.3489 0.683252 87.6669 0 86.8256 0C85.9844 0 85.3024 0.683252 85.3024 1.52609C85.3024 2.36892 85.9844 3.05217 86.8256 3.05217Z" fill="url(#paint2_linear_14_65)"/>
<path d="M129.477 3.05217C130.318 3.05217 131 2.36892 131 1.52609C131 0.683252 130.318 0 129.477 0C128.635 0 127.953 0.683252 127.953 1.52609C127.953 2.36892 128.635 3.05217 129.477 3.05217Z" fill="url(#paint3_linear_14_65)"/>
<path d="M1.52326 31.5392C2.36453 31.5392 3.04651 30.856 3.04651 30.0131C3.04651 29.1703 2.36453 28.4871 1.52326 28.4871C0.681985 28.4871 0 29.1703 0 30.0131C0 30.856 0.681985 31.5392 1.52326 31.5392Z" fill="url(#paint4_linear_14_65)"/>
<path d="M44.1744 31.5392C45.0157 31.5392 45.6976 30.856 45.6976 30.0131C45.6976 29.1703 45.0157 28.4871 44.1744 28.4871C43.3331 28.4871 42.6511 29.1703 42.6511 30.0131C42.6511 30.856 43.3331 31.5392 44.1744 31.5392Z" fill="url(#paint5_linear_14_65)"/>
<path d="M86.8256 31.5392C87.6669 31.5392 88.3489 30.856 88.3489 30.0131C88.3489 29.1703 87.6669 28.4871 86.8256 28.4871C85.9844 28.4871 85.3024 29.1703 85.3024 30.0131C85.3024 30.856 85.9844 31.5392 86.8256 31.5392Z" fill="url(#paint6_linear_14_65)"/>
<path d="M129.477 31.5392C130.318 31.5392 131 30.856 131 30.0131C131 29.1703 130.318 28.4871 129.477 28.4871C128.635 28.4871 127.953 29.1703 127.953 30.0131C127.953 30.856 128.635 31.5392 129.477 31.5392Z" fill="url(#paint7_linear_14_65)"/>
<path d="M1.52326 60.026C2.36453 60.026 3.04651 59.3428 3.04651 58.5C3.04651 57.6571 2.36453 56.9739 1.52326 56.9739C0.681985 56.9739 0 57.6571 0 58.5C0 59.3428 0.681985 60.026 1.52326 60.026Z" fill="url(#paint8_linear_14_65)"/>
<path d="M44.1744 60.026C45.0157 60.026 45.6976 59.3428 45.6976 58.5C45.6976 57.6571 45.0157 56.9739 44.1744 56.9739C43.3331 56.9739 42.6511 57.6571 42.6511 58.5C42.6511 59.3428 43.3331 60.026 44.1744 60.026Z" fill="url(#paint9_linear_14_65)"/>
<path d="M86.8256 60.026C87.6669 60.026 88.3489 59.3428 88.3489 58.5C88.3489 57.6571 87.6669 56.9739 86.8256 56.9739C85.9844 56.9739 85.3024 57.6571 85.3024 58.5C85.3024 59.3428 85.9844 60.026 86.8256 60.026Z" fill="url(#paint10_linear_14_65)"/>
<path d="M129.477 60.026C130.318 60.026 131 59.3428 131 58.5C131 57.6571 130.318 56.9739 129.477 56.9739C128.635 56.9739 127.953 57.6571 127.953 58.5C127.953 59.3428 128.635 60.026 129.477 60.026Z" fill="url(#paint11_linear_14_65)"/>
<path d="M1.52326 88.5131C2.36453 88.5131 3.04651 87.8299 3.04651 86.987C3.04651 86.1442 2.36453 85.4609 1.52326 85.4609C0.681985 85.4609 0 86.1442 0 86.987C0 87.8299 0.681985 88.5131 1.52326 88.5131Z" fill="url(#paint12_linear_14_65)"/>
<path d="M44.1744 88.5131C45.0157 88.5131 45.6976 87.8299 45.6976 86.987C45.6976 86.1442 45.0157 85.4609 44.1744 85.4609C43.3331 85.4609 42.6511 86.1442 42.6511 86.987C42.6511 87.8299 43.3331 88.5131 44.1744 88.5131Z" fill="url(#paint13_linear_14_65)"/>
<path d="M86.8256 88.5131C87.6669 88.5131 88.3489 87.8299 88.3489 86.987C88.3489 86.1442 87.6669 85.4609 86.8256 85.4609C85.9844 85.4609 85.3024 86.1442 85.3024 86.987C85.3024 87.8299 85.9844 88.5131 86.8256 88.5131Z" fill="url(#paint14_linear_14_65)"/>
<path d="M129.477 88.5131C130.318 88.5131 131 87.8299 131 86.987C131 86.1442 130.318 85.4609 129.477 85.4609C128.635 85.4609 127.953 86.1442 127.953 86.987C127.953 87.8299 128.635 88.5131 129.477 88.5131Z" fill="url(#paint15_linear_14_65)"/>
<path d="M1.52326 117C2.36453 117 3.04651 116.317 3.04651 115.474C3.04651 114.631 2.36453 113.948 1.52326 113.948C0.681985 113.948 0 114.631 0 115.474C0 116.317 0.681985 117 1.52326 117Z" fill="url(#paint16_linear_14_65)"/>
<path d="M44.1744 117C45.0157 117 45.6976 116.317 45.6976 115.474C45.6976 114.631 45.0157 113.948 44.1744 113.948C43.3331 113.948 42.6511 114.631 42.6511 115.474C42.6511 116.317 43.3331 117 44.1744 117Z" fill="url(#paint17_linear_14_65)"/>
<path d="M86.8256 117C87.6669 117 88.3489 116.317 88.3489 115.474C88.3489 114.631 87.6669 113.948 86.8256 113.948C85.9844 113.948 85.3024 114.631 85.3024 115.474C85.3024 116.317 85.9844 117 86.8256 117Z" fill="url(#paint18_linear_14_65)"/>
<path d="M129.477 117C130.318 117 131 116.317 131 115.474C131 114.631 130.318 113.948 129.477 113.948C128.635 113.948 127.953 114.631 127.953 115.474C127.953 116.317 128.635 117 129.477 117Z" fill="url(#paint19_linear_14_65)"/>
</g>
<defs>
<linearGradient id="paint0_linear_14_65" x1="1.52326" y1="0" x2="1.52326" y2="3.05217" gradientUnits="userSpaceOnUse">
<stop stop-color="#AB2E86"/>
<stop offset="1" stop-color="#D25DC8"/>
</linearGradient>
<linearGradient id="paint1_linear_14_65" x1="44.1744" y1="0" x2="44.1744" y2="3.05217" gradientUnits="userSpaceOnUse">
<stop stop-color="#AB2E86"/>
<stop offset="1" stop-color="#D25DC8"/>
</linearGradient>
<linearGradient id="paint2_linear_14_65" x1="86.8256" y1="0" x2="86.8256" y2="3.05217" gradientUnits="userSpaceOnUse">
<stop stop-color="#AB2E86"/>
<stop offset="1" stop-color="#D25DC8"/>
</linearGradient>
<linearGradient id="paint3_linear_14_65" x1="129.477" y1="0" x2="129.477" y2="3.05217" gradientUnits="userSpaceOnUse">
<stop stop-color="#AB2E86"/>
<stop offset="1" stop-color="#D25DC8"/>
</linearGradient>
<linearGradient id="paint4_linear_14_65" x1="1.52326" y1="28.4871" x2="1.52326" y2="31.5392" gradientUnits="userSpaceOnUse">
<stop stop-color="#AB2E86"/>
<stop offset="1" stop-color="#D25DC8"/>
</linearGradient>
<linearGradient id="paint5_linear_14_65" x1="44.1744" y1="28.4871" x2="44.1744" y2="31.5392" gradientUnits="userSpaceOnUse">
<stop stop-color="#AB2E86"/>
<stop offset="1" stop-color="#D25DC8"/>
</linearGradient>
<linearGradient id="paint6_linear_14_65" x1="86.8256" y1="28.4871" x2="86.8256" y2="31.5392" gradientUnits="userSpaceOnUse">
<stop stop-color="#AB2E86"/>
<stop offset="1" stop-color="#D25DC8"/>
</linearGradient>
<linearGradient id="paint7_linear_14_65" x1="129.477" y1="28.4871" x2="129.477" y2="31.5392" gradientUnits="userSpaceOnUse">
<stop stop-color="#AB2E86"/>
<stop offset="1" stop-color="#D25DC8"/>
</linearGradient>
<linearGradient id="paint8_linear_14_65" x1="1.52326" y1="56.9739" x2="1.52326" y2="60.026" gradientUnits="userSpaceOnUse">
<stop stop-color="#AB2E86"/>
<stop offset="1" stop-color="#D25DC8"/>
</linearGradient>
<linearGradient id="paint9_linear_14_65" x1="44.1744" y1="56.9739" x2="44.1744" y2="60.026" gradientUnits="userSpaceOnUse">
<stop stop-color="#AB2E86"/>
<stop offset="1" stop-color="#D25DC8"/>
</linearGradient>
<linearGradient id="paint10_linear_14_65" x1="86.8256" y1="56.9739" x2="86.8256" y2="60.026" gradientUnits="userSpaceOnUse">
<stop stop-color="#AB2E86"/>
<stop offset="1" stop-color="#D25DC8"/>
</linearGradient>
<linearGradient id="paint11_linear_14_65" x1="129.477" y1="56.9739" x2="129.477" y2="60.026" gradientUnits="userSpaceOnUse">
<stop stop-color="#AB2E86"/>
<stop offset="1" stop-color="#D25DC8"/>
</linearGradient>
<linearGradient id="paint12_linear_14_65" x1="1.52326" y1="85.4609" x2="1.52326" y2="88.5131" gradientUnits="userSpaceOnUse">
<stop stop-color="#AB2E86"/>
<stop offset="1" stop-color="#D25DC8"/>
</linearGradient>
<linearGradient id="paint13_linear_14_65" x1="44.1744" y1="85.4609" x2="44.1744" y2="88.5131" gradientUnits="userSpaceOnUse">
<stop stop-color="#AB2E86"/>
<stop offset="1" stop-color="#D25DC8"/>
</linearGradient>
<linearGradient id="paint14_linear_14_65" x1="86.8256" y1="85.4609" x2="86.8256" y2="88.5131" gradientUnits="userSpaceOnUse">
<stop stop-color="#AB2E86"/>
<stop offset="1" stop-color="#D25DC8"/>
</linearGradient>
<linearGradient id="paint15_linear_14_65" x1="129.477" y1="85.4609" x2="129.477" y2="88.5131" gradientUnits="userSpaceOnUse">
<stop stop-color="#AB2E86"/>
<stop offset="1" stop-color="#D25DC8"/>
</linearGradient>
<linearGradient id="paint16_linear_14_65" x1="1.52326" y1="113.948" x2="1.52326" y2="117" gradientUnits="userSpaceOnUse">
<stop stop-color="#AB2E86"/>
<stop offset="1" stop-color="#D25DC8"/>
</linearGradient>
<linearGradient id="paint17_linear_14_65" x1="44.1744" y1="113.948" x2="44.1744" y2="117" gradientUnits="userSpaceOnUse">
<stop stop-color="#AB2E86"/>
<stop offset="1" stop-color="#D25DC8"/>
</linearGradient>
<linearGradient id="paint18_linear_14_65" x1="86.8256" y1="113.948" x2="86.8256" y2="117" gradientUnits="userSpaceOnUse">
<stop stop-color="#AB2E86"/>
<stop offset="1" stop-color="#D25DC8"/>
</linearGradient>
<linearGradient id="paint19_linear_14_65" x1="129.477" y1="113.948" x2="129.477" y2="117" gradientUnits="userSpaceOnUse">
<stop stop-color="#AB2E86"/>
<stop offset="1" stop-color="#D25DC8"/>
</linearGradient>
<clipPath id="clip0_14_65">
<rect width="131" height="117" fill="white"/>
</clipPath>
</defs>
</svg>
